# xmcd CD database file
#
# Track frame offsets:
#	150
#	9998
#	23236
#	34804
#	45517
#	57284
#	70126
#	79680
#	92886
#	107490
#	123747
#	139573
#	150535
#	166638
#	178172
#	191950
#	204591
#	217028
#	228055
#	243071
#	260265
#	275335
#	292711
#
# Disc length: 4040 seconds
#
# Revision: 0
# Processed by: cddbd v1.5.2PL0 Copyright (c) Steve Scherf et al.
# Submitted via: CDex 1.51
#
DISCID=310fc617
DTITLE=Lynn Anderson - Reflections - CD 2 von 2
DYEAR=2006
DGENRE=Country
TTITLE0=What A Man My Man Is
TTITLE1=Rose Garden
TTITLE2=You're My Man
TTITLE3=If I Kiss You
TTITLE4=How Can I Unlove You
TTITLE5=Mansion On The Hill
TTITLE6=Snowbird
TTITLE7=Keep Me In Mind
TTITLE8=Sing Me A Sad Song
TTITLE9=When I Dream
TTITLE10=You Needed Me
TTITLE11=Heaven's Just A Sin Away
TTITLE12=The Devil Went Down To Georgia
TTITLE13=That'll Be The Day
TTITLE14=Two Doors Down
TTITLE15=I Fall To Pieces
TTITLE16=I've Never Loved Anyone More
TTITLE17=Ways To Love A Man
TTITLE18=Desperado
TTITLE19=Close To You (Lynn Anderson - Close To You (Lynn Anderson)
TTITLE20=Could I Have This Dance
TTITLE21=Midnight Train To Georgia
TTITLE22=I've Been Everywhere
EXTD=YEAR: 2006
EXTT0=
EXTT1=
EXTT2=
EXTT3=
EXTT4=
EXTT5=
EXTT6=
EXTT7=
EXTT8=
EXTT9=
EXTT10=
EXTT11=
EXTT12=
EXTT13=
EXTT14=
EXTT15=
EXTT16=
EXTT17=
EXTT18=
EXTT19=
EXTT20=
EXTT21=
EXTT22=
PLAYORDER=
